<mxfile host="app.diagrams.net" modified="2023-04-25T07:35:39.793Z" agent="Mozilla/5.0 (Windows NT 10.0; Win64; x64) AppleWebKit/537.36 (KHTML, like Gecko) Chrome/112.0.0.0 Safari/537.36" etag="BuycP_NVSsoAhe-3utzc" version="21.2.1" type="github">
  <diagram name="第 1 页" id="mDBhQLJPQ-CQECA17axw">
    <mxGraphModel dx="2074" dy="1116" grid="1" gridSize="10" guides="1" tooltips="1" connect="1" arrows="1" fold="1" page="1" pageScale="1" pageWidth="827" pageHeight="1169" math="0" shadow="0">
      <root>
        <mxCell id="0" />
        <mxCell id="1" parent="0" />
        <mxCell id="1BWBP6y2UTjpg8ovwzqx-1" value="市场" style="swimlane;whiteSpace=wrap;html=1;" vertex="1" parent="1">
          <mxGeometry x="270" y="485" width="200" height="205" as="geometry" />
        </mxCell>
        <mxCell id="1BWBP6y2UTjpg8ovwzqx-2" value="分红权NFT" style="rounded=1;whiteSpace=wrap;html=1;" vertex="1" parent="1BWBP6y2UTjpg8ovwzqx-1">
          <mxGeometry x="40" y="40" width="120" height="40" as="geometry" />
        </mxCell>
        <mxCell id="1BWBP6y2UTjpg8ovwzqx-3" value="分红管理" style="rounded=1;whiteSpace=wrap;html=1;" vertex="1" parent="1BWBP6y2UTjpg8ovwzqx-1">
          <mxGeometry x="40" y="95" width="120" height="45" as="geometry" />
        </mxCell>
        <mxCell id="1BWBP6y2UTjpg8ovwzqx-4" value="分红权商店" style="rounded=1;whiteSpace=wrap;html=1;" vertex="1" parent="1BWBP6y2UTjpg8ovwzqx-1">
          <mxGeometry x="40" y="145" width="120" height="45" as="geometry" />
        </mxCell>
        <mxCell id="1BWBP6y2UTjpg8ovwzqx-6" style="edgeStyle=orthogonalEdgeStyle;rounded=0;orthogonalLoop=1;jettySize=auto;html=1;entryX=0;entryY=0.5;entryDx=0;entryDy=0;" edge="1" parent="1" source="1BWBP6y2UTjpg8ovwzqx-5" target="1BWBP6y2UTjpg8ovwzqx-1">
          <mxGeometry relative="1" as="geometry" />
        </mxCell>
        <mxCell id="1BWBP6y2UTjpg8ovwzqx-7" value="质押" style="edgeLabel;html=1;align=center;verticalAlign=middle;resizable=0;points=[];" vertex="1" connectable="0" parent="1BWBP6y2UTjpg8ovwzqx-6">
          <mxGeometry x="-0.1644" y="1" relative="1" as="geometry">
            <mxPoint as="offset" />
          </mxGeometry>
        </mxCell>
        <mxCell id="1BWBP6y2UTjpg8ovwzqx-5" value="分红权持有者" style="ellipse;whiteSpace=wrap;html=1;aspect=fixed;" vertex="1" parent="1">
          <mxGeometry x="40" y="547.5" width="80" height="80" as="geometry" />
        </mxCell>
        <mxCell id="1BWBP6y2UTjpg8ovwzqx-9" style="edgeStyle=orthogonalEdgeStyle;rounded=0;orthogonalLoop=1;jettySize=auto;html=1;entryX=1;entryY=0.5;entryDx=0;entryDy=0;" edge="1" parent="1" source="1BWBP6y2UTjpg8ovwzqx-8" target="1BWBP6y2UTjpg8ovwzqx-1">
          <mxGeometry relative="1" as="geometry" />
        </mxCell>
        <mxCell id="1BWBP6y2UTjpg8ovwzqx-10" value="购买" style="edgeLabel;html=1;align=center;verticalAlign=middle;resizable=0;points=[];" vertex="1" connectable="0" parent="1BWBP6y2UTjpg8ovwzqx-9">
          <mxGeometry x="-0.1492" y="2" relative="1" as="geometry">
            <mxPoint as="offset" />
          </mxGeometry>
        </mxCell>
        <mxCell id="1BWBP6y2UTjpg8ovwzqx-8" value="用户" style="ellipse;whiteSpace=wrap;html=1;aspect=fixed;" vertex="1" parent="1">
          <mxGeometry x="680" y="547.5" width="80" height="80" as="geometry" />
        </mxCell>
      </root>
    </mxGraphModel>
  </diagram>
</mxfile>
